<?xml version="1.0" encoding="UTF-8"?>
<svg id="Layer_1" data-name="Layer 1" xmlns="http://www.w3.org/2000/svg" viewBox="0 0 199.41 219.42">
  <path d="M154.52,61.07c-.12-.76-3.91-10.56-4.47-10.45-4.94,2.51-10.36,4.07-15.2,6.78-4.09,2.29-14.96,12.2-17.61,12.01-6.5-.46-3.06-13.65-.93-17.55,10.14-18.55,48.17-14.04,58.21-34.28l-15.75,7.74c-19.73,7.71-49.75,9.59-50.25,37.26-.73.7-17.06-6.27-17.8-8.7-1.84-6.05,3.8-16.19,8.28-20.33,12.78-11.8,30.9-9.15,46.73-12.27l9.79-4.69c-25.38,1.25-71.14.21-70,35.99l-15.76-3.24c-4.7-25.42,24.22-38.49,45.76-36.77-2.68-4.22-11.99-3.42-16.54-3.03-18.57,1.59-37.42,18.38-35.47,38.03l-11.32-2.92c-5.45-11.8,1.06-23.89,10.33-31.58-.89-1.57-2.26.34-3.11.89-9.5,6.17-16.05,17.28-13.66,28.89.44,2.15,6.65,11.88,5.77,12.72-11.01-1.88-22.85-1.62-33.52,1.97-5.36,1.81-9.73,4.96-14.77,7.23-.8.36-2.1,1.72-2.69.31,3.28-5.44,4.79-10.91,9.97-15.03,2.76-2.19,11.98-5.75,12.77-6.73.95-1.18,2.18-9.16,3.52-11.98C37.44,8.98,82.18,2.91,104.01,4.59c27.84,2.14,57.47,17.32,82.48-4.59l2.01,1.05c-2.3,11.55-4.19,22.62-10.97,32.51,13.42,2.34,23.95,16.64,21.54,30.06-2.11,11.76-16.05,21.93-27.53,15.94l8.68-2.8c14.4-6.21,15.33-27.79,1.01-34.39-9.18-4.23-12.35-.43-19.2,5.19.12,25.45,1.59,51.09-.5,76.5-1.56,18.94-5.23,41.85-9.67,60.33-4.76,19.82-9.48,29.53-31.11,33.89-36.58,7.37-95.04-21.64-96.25-63.66-17.27-1.98-29.5-20.46-22.44-37.03.91-2.13,4.13-6.02,4.24-6.63.64-3.27-4.5-16.23-2.84-18.91,13.14-13,35.47-22.47,53.08-13.98v16c0,5.28-11,15.98-11,17v18.5h-8.99c1.06-14.69-15.64-26.83-26.01-13.01,12.95-1.85,22.87,6.63,19.53,20.05-5.85,2.93-6.37-7.65-10.01-11.06-1.31-1.22-8.28-4.35-10.14-4.87s-1.86,2.24-2.08,3.66c-2.68,17.09,12.96,27.43,28.7,22.23-.42,11.61,2.45,25.51,9.59,34.91,15.01,19.76,75.92,45.46,92.87,19.04,10.54-16.43,11.83-63.27,13.56-83.44.39-4.55,3.53-17.28,2.25-20.24-2.38-5.52-17.55-8.4-23.27-8.27.69-11.99,16.09-7.35,23.01-3-.83-7.53,1.13-17.28,0-24.5Z"/>
  <path d="M142.52,126.57h-10s5.71,11.52,5.71,11.52c-6.82,7.61-15.09,17.26-26.73,13.97,1.05-4.85,17.44-11.4,17.72-14.97-3.44-9.14-11.93-18.26-8.69-28.51,4.24-.62,4.18,2.37,5.55,4.97.71,1.34-.3,2.56,2.43,2.02-1.95-4.92,1.87-16.84,8.28-15.84,1.31.21,5.72,3.64,5.72,4.34v22.5Z"/>
  <path d="M84.52,145.56l-9.99,2.51c15.01,16.14,41.65,22.65,61.98,12.5,2.14,5.44.72,7.07-4.29,9.2-19.04,8.1-54.15.17-61.71-21.2l-9.98,4c-.2-11.96,17.89-16.96,23.99-7.01Z"/>
  <path d="M55.52,71.57c-18.95-5.68-37.73,2.35-52.5,13.98-9.01-13.01,7.18-20.29,17.5-23.49,11.48-3.56,34.95-8.55,35,9.51Z"/>
  <path d="M88.53,126.57l-14,.99c.7-7.23-3.86-23.88,5.7-26.8,13.25-4.04,8.05,19.43,8.29,25.81Z"/>
  <path d="M90.3,77.85c3.95-.09,16.11,3.58,11.24,8.24-2.46,2.35-16.01,1.95-20.28,2.72-4.97.9-8.03,4.53-12.07,5.96-4.42,1.57-1.66-4.64-.52-6.54,3.68-6.16,14.76-10.21,21.62-10.37Z"/>
</svg>